<svg xmlns="http://www.w3.org/2000/svg" viewBox="0 0 48 48">
  <rect width="48" height="48" rx="8" fill="#0b0b0d"/>
  <path d="M24 8C15 8 9 15 9 23c0 6 3 10 6 12.5V40h18v-4.5c3-2.5 6-6.5 6-12.5 0-8-6-15-15-15z"
        fill="#c9d0d8" stroke="#050506" stroke-width="2"/>
  <circle cx="17.5" cy="22" r="3" fill="#0b0b0d"/>
  <circle cx="30.5" cy="22" r="3" fill="#0b0b0d"/>
  <path d="M21 29h6M20 35h8" stroke="#0b0b0d" stroke-width="2" stroke-linecap="round"/>
  <path d="M9 23c-2-1-4-1-5 0M39 23c2-1 4-1 5 0" stroke="#d9662b" stroke-width="2.5" stroke-linecap="round"/>
</svg>
